# xmcd
#
# Track frame offsets:
# 150
# 20265
# 35670
# 54957
# 67532
# 85845
# 96580
# 113267
# 134035
# 152575
# 171735
# 189762
# 206100
# 222077
# 230085
#
# Disc length: 3407 seconds
#
# Revision: 0
# Processed by: cddbd v1.4PL0 Copyright (c) Steve Scherf et al.
# Submitted via: MacMP3 Pro 5.0 (http://mp3.act2.co.jp/)
#
DISCID=c90d4d0f
DTITLE=Fun Lovin' Criminals - 100% Colombian
DYEAR=1900
DGENRE=
TTITLE0=Up On The Hill
TTITLE1=Love Unlimited
TTITLE2=The View Belongs To Everyone
TTITLE3=Korean Bodega
TTITLE4=Back On The Block
TTITLE5=10th Street
TTITLE6=Sugar
TTITLE7=Southside
TTITLE8=We Aer AllVery Worried About You
TTITLE9=All For Self
TTITLE10=All My Time Is Gone
TTITLE11=Big Night Out
TTITLE12=Mini Bar Blues
TTITLE13=Fisty Nuts
TTITLE14=Shining Star
EXTD=
EXTT0=
EXTT1=
EXTT2=
EXTT3=
EXTT4=
EXTT5=
EXTT6=
EXTT7=
EXTT8=
EXTT9=
EXTT10=
EXTT11=
EXTT12=
EXTT13=
EXTT14=
PLAYORDER=
